<?xml version="1.0" encoding="UTF-8"?><svg id="Capa_1" xmlns="http://www.w3.org/2000/svg" viewBox="0 0 48 43"><defs><style>.cls-1{stroke-width:0px;}</style></defs><path class="cls-1" d="m.33,37.77c.27-.59.73-.82,1.37-.79.64.03,1.28,0,1.85,0-.04-.75-.12-1.45-.12-2.14,0-7.58,0-15.16,0-22.74,0-1.45.65-2.42,1.86-2.75.32-.09.67-.1,1.01-.1,6.27,0,12.54,0,18.81,0h.66c0-.49.02-.95-.01-1.4,0-.11-.14-.23-.23-.32-.29-.28-.6-.53-.88-.82-.52-.54-.62-1.21-.28-1.87.21-.41.44-.81.69-1.2.39-.59,1.04-.84,1.73-.66.28.07.56.16.84.24.25.06.54.21.74.13.41-.15.78-.42,1.15-.67.08-.05.09-.22.12-.34.09-.39.16-.78.28-1.17.2-.7.72-1.12,1.45-1.16.48-.02.96-.02,1.43,0,.7.04,1.21.45,1.42,1.12.08.25.18.51.18.76,0,.94.78,1.11,1.38,1.46.09.05.27,0,.4-.03.38-.11.76-.24,1.15-.34.72-.19,1.36.05,1.77.67.25.39.49.79.7,1.2.33.64.22,1.31-.27,1.84-.16.17-.33.32-.5.48-.72.68-.81.96-.6,2.06.15,0,.32.02.48.02,1.03,0,2.06-.01,3.1,0,1.46.02,2.5,1.03,2.56,2.49.03.74.02,1.48,0,2.22,0,.52-.28.8-.71.79-.41-.01-.66-.28-.67-.78-.01-.68,0-1.36,0-2.03-.02-.88-.44-1.29-1.32-1.3-.62,0-1.23,0-1.85,0-.04,0-.09.02-.12.02.03.44.05.87.09,1.36.29,0,.63,0,.96,0,.64.01.86.22.86.87,0,1.22,0,2.43,0,3.65,0,5.98,0,11.96,0,17.93,0,.96-.15,1.11-1.09,1.11-11.14,0-22.28,0-33.42,0-.92,0-1.08-.15-1.08-1.07,0-1.34,0-2.68,0-4.02,0-.42.14-.73.58-.82.44-.09.79.25.8.78.01,1.05,0,2.1,0,3.14,0,.18,0,.36,0,.57h32.78V13.42c-.6.04-1.18-.17-1.73.34-.26.24-.79.25-1.2.26-.29,0-.62-.1-.88-.24-.51-.27-.91-.1-1.37.15-.46.25-.74.55-.77,1.09-.01.26-.11.51-.18.76-.24.83-.82,1.18-1.84,1.21-1.52.04-2.09-.06-2.49-1.19-.12-.35-.21-.71-.25-1.08-.04-.32-.21-.46-.45-.64-.61-.45-1.2-.54-1.91-.22-.77.35-1.53.33-2.15-.37-.05-.05-.13-.08-.2-.09-.49,0-.98,0-1.51,0,.08.42.11.79.23,1.13.06.16.27.26.42.39.56.46,1.14.54,1.83.23.38-.17.85-.25,1.25-.19,1.02.14,2.22,2.09,1.84,3.04-.21.52-.69.96-1.1,1.38-.58.57-.6,1.72.02,2.25,1.22,1.04,1.62,1.63.56,3.31-.7,1.11-1.19,1.34-2.45.98-.01,0-.03,0-.04-.01-.77-.47-1.43-.19-2.06.3-.13.1-.24.27-.29.42-.11.38-.17.78-.28,1.17-.21.75-.73,1.17-1.5,1.2-.45.02-.89.02-1.34,0-.74-.03-1.28-.46-1.49-1.17-.06-.21-.15-.42-.14-.63.02-.94-.72-1.19-1.36-1.53-.11-.06-.3-.02-.44.01-.4.11-.79.25-1.19.36-.68.17-1.31-.06-1.7-.64-.27-.41-.52-.84-.74-1.28-.32-.63-.21-1.23.25-1.76.14-.16.28-.34.46-.45.77-.45.81-1.16.72-1.92-.02-.16-.14-.33-.25-.45-.28-.29-.6-.54-.87-.82-.52-.54-.63-1.21-.28-1.87.21-.41.45-.81.7-1.2.39-.6,1.03-.84,1.73-.67.31.08.63.15.93.28.39.18.7.07,1.08-.09.79-.33.98-.93.99-1.73H7.59c0,.18,0,.37,0,.56,0,4.31,0,8.63,0,12.94,0,.18,0,.37-.03.55-.07.35-.32.53-.66.53-.34,0-.59-.19-.66-.54-.04-.18-.03-.37-.03-.55,0-4.61,0-9.21,0-13.82,0-.96.15-1.11,1.09-1.11,5.45,0,10.91,0,16.36,0,.18,0,.37,0,.57,0v-1.39c-.1,0-.26,0-.42,0-5.84,0-11.68,0-17.52,0-1.09,0-1.47.38-1.47,1.48,0,7.8,0,15.59,0,23.39,0,1.09.38,1.47,1.48,1.47,11.8,0,23.6,0,35.41,0,1.09,0,1.48-.38,1.48-1.47,0-6.01,0-12.02,0-18.03,0-.21-.05-.48.05-.63.14-.22.39-.44.63-.5.33-.08.58.15.67.5.04.16.04.34.04.5,0,6.06,0,12.11,0,18.17,0,.47-.1.94-.16,1.48.55,0,1.14,0,1.73,0,1.24,0,1.54.29,1.53,1.51,0,.68.03,1.36-.09,2.02-.23,1.35-1.36,2.38-2.72,2.42-2,.07-4,.04-6.01.03-.48,0-.74-.31-.72-.72.02-.4.28-.64.75-.65,1.83,0,3.67,0,5.5,0,1.04,0,1.78-.57,1.87-1.48.06-.56.01-1.13.01-1.73h-17.29c-.02.18-.03.34-.05.5-.09.94-.72,1.6-1.67,1.66-.61.04-1.23.02-1.85.02-1.31,0-2.62,0-3.93,0-1.76,0-2.24-.41-2.47-2.18H1.74c0,.59-.05,1.18.01,1.75.08.77.71,1.33,1.49,1.42.24.03.49.03.74.03,10.45,0,20.89,0,31.34,0,.17,0,.34,0,.51,0,.42.03.67.28.67.67,0,.39-.23.64-.66.69-.12.02-.25.01-.37.01-10.57,0-21.14,0-31.71,0-1.8,0-2.91-.87-3.43-2.55v-2.68ZM38.61,5.57c-.15-.27-.33-.51-.44-.78-.19-.48-.49-.58-.93-.35-1.08.57-2.08.37-3.01-.35-.07-.06-.16-.1-.24-.14-.48-.26-.74-.67-.84-1.21-.06-.35-.12-.7-.23-1.04-.04-.13-.2-.29-.32-.3-1.25-.19-1.37-.1-1.59,1.14-.01.08-.04.15-.05.23-.08.54-.39.93-.85,1.2-.23.13-.46.24-.68.39-.68.47-1.36.52-2.14.22-.99-.39-.98-.34-1.54.56-.25.39-.2.65.16.88,1.06.68,1.4,1.65,1.23,2.86-.01.09,0,.18,0,.28,0,.49-.19.89-.56,1.22-.21.18-.4.39-.62.55-.43.3-.44.59-.15,1.03.59.9.29.89,1.37.49.86-.32,1.61-.3,2.35.25.11.08.24.15.36.21.69.32,1.03.86,1.14,1.61.16,1.11.19,1.09,1.31,1.11.4,0,.61-.11.63-.52.06-1.31.77-2.12,1.95-2.59.06-.02.11-.06.16-.09.44-.25.9-.29,1.38-.12.35.12.71.21,1.05.34.26.1.4.02.52-.21.67-1.27.84-.83-.28-1.87-.06-.05-.12-.1-.18-.15-.4-.32-.58-.75-.6-1.25-.01-.28.01-.56,0-.83-.07-.83.19-1.51.9-1.99.2-.14.37-.33.54-.5.07-.07.13-.17.2-.26Zm-11.74,19.16c.08-.08.23-.18.3-.32.69-1.24.79-.81-.24-1.8-.28-.27-.66-.59-.71-.92-.16-1.21-.45-2.48.83-3.4.78-.56.7-.62.26-1.47-.23-.44-.48-.59-.94-.36-1.08.56-2.08.38-3.01-.35-.08-.07-.18-.11-.28-.17-.42-.25-.68-.61-.78-1.09-.07-.38-.14-.76-.26-1.12-.04-.13-.23-.29-.36-.31-1.25-.14-1.32-.08-1.55,1.14,0,.03,0,.06-.01.09-.2,1.09-1.92,2.32-3.03,2.14-.12-.02-.24-.06-.35-.1-.21-.06-.41-.14-.61-.2-.83-.24-.66-.32-1.09.43-.48.84-.6.64.22,1.28.82.65,1.15,1.41,1.04,2.4-.02.14,0,.28,0,.42.01.61-.21,1.11-.7,1.49-.16.12-.31.26-.45.4-.6.58-.56.4-.17,1.08.45.79.45.77,1.34.5.41-.12.84-.29,1.25-.25,1.24.12,2.37,1.24,2.64,2.45.25,1.11.05.89,1.12.94.5.03.8-.1.82-.64.04-1.21.7-1.95,1.78-2.4.07-.03.13-.08.2-.12.49-.3,1-.35,1.55-.15.36.14.73.24,1.2.39Zm.63,13.68h-7.02c-.06.65.04.79.61.79,1.94,0,3.88,0,5.82,0,.59,0,.71-.17.59-.79Z"/><path class="cls-1" d="m32.09,4.73c2.11.01,3.77,1.7,3.75,3.81-.02,2.07-1.7,3.73-3.8,3.72-2.07,0-3.76-1.7-3.77-3.76,0-2.08,1.72-3.78,3.81-3.77Zm2.21,4.52c.36-.87.07-1.94-.68-2.57-.82-.68-1.99-.75-2.88-.16-.81.54-1.27,1.66-.99,2.5.03.1.18.22.28.22,1.43.01,2.86,0,4.28,0Zm-1.45,1.54s0-.08-.01-.12h-1.53s0,.08,0,.12h1.54Z"/><path class="cls-1" d="m21.2,16.75c2.08,0,3.76,1.67,3.78,3.75.02,2.08-1.69,3.79-3.79,3.79-2.11,0-3.78-1.69-3.77-3.79.01-2.08,1.69-3.74,3.78-3.74Zm-.02,6.14c1.32,0,2.39-1.03,2.42-2.34.03-1.32-1.06-2.41-2.4-2.41-1.33,0-2.38,1.05-2.38,2.37,0,1.33,1.04,2.38,2.36,2.39Z"/></svg>