<?xml version="1.0" encoding="UTF-8"?><svg id="Capa_1" xmlns="http://www.w3.org/2000/svg" viewBox="0 0 43 43"><defs><style>.cls-1{stroke-width:0px;}</style></defs><path class="cls-1" d="m39.4,15.21c-.28-.27-.56-.42-.65-.64-.47-1.18-1.27-1.98-2.45-2.46-.21-.08-.45-.42-.44-.63,0-.24.24-.58.45-.67,1.16-.47,1.96-1.26,2.43-2.42.09-.22.43-.47.66-.47.23,0,.57.24.66.46.47,1.16,1.27,1.95,2.43,2.43.22.09.46.44.46.67,0,.23-.25.57-.47.66-1.16.47-1.95,1.27-2.42,2.43-.09.23-.39.38-.67.65Zm-1.09-3.77c.36.36.77.78,1.09,1.1.36-.35.77-.75,1.09-1.07-.35-.36-.75-.77-1.08-1.12-.36.36-.77.76-1.11,1.09Z"/><path class="cls-1" d="m33.71,33.7h1.37v3.54h-1.37v-3.54Z"/><path class="cls-1" d="m33.7,32.22v-1.38h1.38v1.38h-1.38Z"/><path class="cls-1" d="m12.9,32.97v-.57c0-10.03,0-20.07,0-30.1C12.9.97,13.82,0,15.06,0c1.12,0,2.06.89,2.13,2.01.01.18,0,.36,0,.54,0,9.94,0,19.89,0,29.83v.56h2.89c-.22-2.12-.44-4.23-.66-6.34-.75-.3-.8-.37-.8-1.19,0-.76,0-1.52,0-2.28,0-.67.25-.91.93-.91.86,0,1.73,0,2.66,0,0-.88-.03-1.74,0-2.6.04-.74.07-1.5.25-2.21.92-3.69,4.32-6.15,8.13-5.92,3.74.22,6.83,3.12,7.3,6.87.07.57.08,1.16.11,1.76,1.09.32,1.82,1,2.06,2.16.03.16.05.33.05.49,0,1.7,0,3.4,0,5.11,0,.77-.32,1.38-.92,1.85-.11.09-.22.25-.24.38-.33,3.06-.68,6.11-.97,9.17-.09.93-.02,1.88-.03,2.82,0,.67-.25.91-.92.91-11.09,0-22.18,0-33.27,0-.74,0-1.02-.36-.84-1.09.31-1.24.58-2.5.93-3.73.34-1.16.47-2.33.43-3.53-.04-1.12.54-1.68,1.66-1.68,2.13,0,4.27,0,6.4,0h.52Zm20.77-3.39c-.97.71-1.92.7-2.86,0-.77.57-1.58.73-2.43.26-.88-.49-1.19-1.28-1.15-2.26.02-.34,0-.68,0-1.03h-6.37c.23,2.15.45,4.28.68,6.43.98,0,1.9-.01,2.82,0,.81.01,1.41.61,1.43,1.42.01.46-.05.93.01,1.39.13.98.31,1.95.47,2.9h10.34c.3-2.89.61-5.76.9-8.57-.38-.19-.69-.35-1-.51-1.01.69-1.77.69-2.84-.02Zm-6.41-7.37c.52-1.51,1.38-2.14,2.94-2.14,1.94,0,3.88,0,5.82,0h.51c0-.3,0-.55,0-.8-.04-3.06-2.27-5.72-5.26-6.26-3.05-.56-6.04,1.11-7.19,3.98-.68,1.7-.37,3.46-.45,5.22h3.63Zm4.26,2.9c0,.17,0,.31,0,.46,0,.76,0,1.52,0,2.28,0,.5.28.81.7.82.43,0,.72-.31.73-.83,0-.16,0-.33,0-.49,0-.74,0-1.48,0-2.22h1.43c0,.94,0,1.85,0,2.76,0,.59.5.94.99.72.33-.15.44-.42.44-.76,0-.91,0-1.81,0-2.73h1.4c.02.06.03.08.03.11,0,.84,0,1.67,0,2.51,0,.6.27.94.72.93.45-.01.71-.36.71-.95,0-1.6,0-3.19,0-4.79,0-.92-.5-1.41-1.41-1.41-2.4,0-4.81,0-7.21,0-.91,0-1.41.5-1.41,1.42,0,1.37,0,2.75,0,4.12,0,.31-.02.63.01.94.04.41.38.71.75.69.37-.02.64-.3.67-.71.01-.19,0-.39,0-.58,0-.75,0-1.51,0-2.27h1.43Zm-15.76,7.84c0-.15,0-.26,0-.36,0-10.07,0-20.15,0-30.22,0-.1,0-.21-.01-.31-.08-.38-.31-.62-.71-.61-.4,0-.63.24-.7.62-.02.13-.01.27-.01.4,0,10,0,20,0,30v.49h1.43Zm-10.01,2.85h18.57v-1.38H5.76v1.38Zm21.31,5.73h9.44v-1.39h-9.78c.12.48.23.94.34,1.39Zm.14-17.85h-7.11v1.38h7.11v-1.38Zm-12.96,13.6c-.18,1.43-.35,2.84-.53,4.25h2.67c-.18-1.44-.36-2.83-.54-4.25h-1.6Zm-1.44,0h-1.5c-.35,1.42-.71,2.83-1.06,4.26h2.02c.18-1.42.35-2.82.54-4.26Zm5.99,0h-1.5c.18,1.44.36,2.85.53,4.25h2.02c-.36-1.44-.71-2.84-1.06-4.25Zm-13.22,0c-.35,1.43-.71,2.83-1.06,4.27h1.38c.35-1.42.71-2.83,1.07-4.27h-1.39Zm3.19,4.26c.35-1.42.7-2.83,1.06-4.27h-1.38c-.35,1.42-.71,2.83-1.07,4.27h1.39Zm13.96,0c-.37-1.46-.72-2.87-1.07-4.27h-1.38c.36,1.44.71,2.85,1.07,4.27h1.39Zm1.8-4.26h-1.39c.36,1.45.72,2.85,1.06,4.25h1.38c-.36-1.44-.71-2.85-1.06-4.25Z"/><path class="cls-1" d="m11.64,20.06c-.27.29-.42.57-.64.66-1.18.47-1.99,1.27-2.46,2.45-.08.21-.42.45-.63.44-.24,0-.58-.23-.67-.45-.47-1.16-1.26-1.96-2.42-2.43-.22-.09-.47-.43-.47-.66,0-.23.24-.58.46-.66,1.16-.47,1.95-1.26,2.43-2.43.09-.22.44-.46.66-.46.23,0,.57.25.66.47.47,1.14,1.24,1.94,2.39,2.4.25.1.41.4.69.68Zm-3.73-1.08c-.37.35-.79.74-1.12,1.04.37.38.77.79,1.08,1.12.36-.35.77-.74,1.12-1.09-.34-.34-.75-.75-1.08-1.08Z"/><path class="cls-1" d="m7.33,28.66c-.26.28-.41.57-.65.67-1.18.47-1.98,1.28-2.45,2.46-.08.21-.43.44-.64.43-.24-.01-.58-.24-.67-.46-.47-1.16-1.26-1.96-2.43-2.43-.22-.09-.46-.44-.46-.66,0-.23.25-.57.47-.66,1.16-.47,1.95-1.27,2.42-2.43.09-.22.43-.44.67-.45.21,0,.55.23.63.44.47,1.18,1.28,1.98,2.46,2.45.22.09.37.37.64.65Zm-2.65,0c-.35-.35-.75-.76-1.09-1.11-.36.35-.76.76-1.11,1.11.36.35.78.76,1.11,1.09.35-.35.75-.74,1.09-1.09Z"/></svg>