<?xml version="1.0" encoding="UTF-8"?><svg id="Capa_1" xmlns="http://www.w3.org/2000/svg" viewBox="0 0 49 43"><defs><style>.cls-1{stroke-width:0px;}</style></defs><path class="cls-1" d="m7.81,29.83c-.77-.01-1.71-.33-2.48-1.09-1.15-1.14-1.15-2.82,0-3.96,1.43-1.42,4-1.46,5.47-.08,1.3,1.21,1.26,3.08-.1,4.22-.75.63-1.62.91-2.88.91Zm.28-4.72c-.62,0-1.2.17-1.67.58-.71.62-.71,1.53,0,2.15.88.76,2.48.77,3.36.01.73-.63.73-1.57,0-2.18-.48-.4-1.06-.56-1.68-.56Z"/><path class="cls-1" d="m8.08,31.32c1.22,0,2.45,0,3.67,0,.56,0,.89.27.88.71,0,.42-.33.7-.85.7-2.45,0-4.89,0-7.34,0-.54,0-.84-.27-.85-.7,0-.45.3-.71.87-.71,1.21,0,2.41,0,3.62,0Z"/><path class="cls-1" d="m25.12,23.11c1.03,0,2.06,0,3.09,0,.53,0,.85.26.86.68.01.44-.31.73-.87.73-2.08,0-4.16,0-6.24,0-.55,0-.87-.29-.85-.74.02-.43.31-.67.86-.67,1.05,0,2.09,0,3.14,0Z"/><path class="cls-1" d="m25.1,27.44c-1.03,0-2.07,0-3.1,0-.58,0-.88-.25-.88-.7,0-.43.3-.69.84-.69,2.1,0,4.2,0,6.3,0,.35,0,.67.1.75.46.05.23-.02.55-.17.72-.12.15-.42.2-.64.21-1.03.02-2.07,0-3.1,0Z"/><path class="cls-1" d="m.07,31.23c.22-.32.48-.58.9-.44.44.14.53.5.52.91,0,.78,0,1.56,0,2.34,0,.56.26.82.82.82,3.86,0,7.73,0,11.59,0,.56,0,.83-.26.83-.82,0-2.51.03-5.03-.02-7.54,0-.45-.28-.94-.56-1.32-.41-.56-.95-1.02-1.41-1.55-1.38-1.6-1.39-3.9-.02-5.51.4-.48.84-.93,1.35-1.48-.29,0-.46,0-.63,0-1.94,0-3.88,0-5.82,0-.53,0-.85-.27-.85-.69,0-.42.32-.69.84-.71.1,0,.19,0,.29,0,.83,0,1.65,0,2.48,0,1.26,0,2.51,0,3.77,0h.56c0-.67.04-1.28-.01-1.89-.04-.46-.4-.61-.83-.61-.81,0-1.62,0-2.43,0-2.97,0-5.95,0-8.92,0-.82,0-1.02.21-1.03,1,0,.47,0,.95,0,1.5.69,0,1.35,0,2.01,0,.22,0,.45,0,.67.02.41.05.64.31.62.71-.01.4-.25.66-.67.67-.62.02-1.23,0-1.99,0,.4.43.71.78,1.04,1.11,1.25,1.29,1.67,2.81,1.08,4.51-.2.58-.61,1.1-.99,1.61-.32.43-.71.81-1.1,1.19-.49.48-.71,1.03-.67,1.71.02.32,0,.64,0,.95.01.39-.07.75-.48.89-.44.16-.72-.09-.94-.44v-2.2c.21-.93.77-1.65,1.43-2.3.29-.29.57-.59.85-.9.63-.73.93-1.59.65-2.51-.16-.54-.49-1.06-.85-1.5-.78-.95-1.81-1.7-2.09-3v-2.77c.45-1.28,1.38-1.79,2.7-1.68.19.02.38,0,.63,0,0-.63.01-1.21-.01-1.79,0-.09-.17-.2-.28-.25-.81-.32-1.19-.84-1.2-1.7,0-.68-.01-1.37,0-2.05.02-1.03.67-1.72,1.7-1.73,3.01-.02,6.01-.02,9.02,0,1.04,0,1.67.69,1.68,1.73,0,.7,0,1.4,0,2.1,0,.8-.4,1.37-1.15,1.63-.25.08-.33.19-.32.43.01.52,0,1.04,0,1.63.37,0,.7,0,1.03,0,1.4.02,2.26.86,2.28,2.26.05,2.91.06,2.93-1.96,5.02-.85.88-1.29,1.86-.93,3.06.13.41.38.8.66,1.14.4.5.86.94,1.3,1.4.62.65.94,1.43.94,2.33,0,2.51.01,5.03,0,7.54,0,1.33-.9,2.21-2.23,2.21-3.86,0-7.73,0-11.59,0-1.18,0-1.88-.64-2.25-1.71v-3.34ZM8.1,7.94c1.43,0,2.86,0,4.29,0,.38,0,.51-.13.5-.5-.02-.6-.01-1.21,0-1.81,0-.3-.11-.43-.42-.43-2.91,0-5.82,0-8.73,0-.34,0-.44.16-.43.47.01.57.02,1.15,0,1.72-.02.41.12.56.54.55,1.41-.02,2.83,0,4.24,0Zm3.3,1.45h-6.55v1.9h6.55v-1.9Z"/><path class="cls-1" d="m47.03,13.88c0,.51-.15.94.36,1.28.35.23.24.73-.13,1.02-.42.32-.35,1.27.1,1.54,1.02.62,1.61,1.53,1.54,2.72-.06,1.09-.2,2.19-.47,3.24-.62,2.37-.54,4.71.06,7.07.24.96.37,1.97.42,2.96.07,1.4-1,2.45-2.4,2.48-.81.02-1.62.02-2.43,0-.32,0-.48.11-.63.38-.81,1.43-1.88,2.64-3.16,3.66-.5.39-.93.41-1.21.04-.28-.37-.15-.7.3-1.14.77-.75,1.52-1.53,2.24-2.33.28-.31.49-.71.7-1.08.55-.97.43-2.05-.31-2.93-.19.11-.38.23-.57.33-.42.22-.79.15-1.01-.19-.23-.34-.12-.72.28-1.02.05-.04.1-.07.15-.11-.94-.69-2.76-.81-3.79.42-1.64,1.97-3.74,3.24-6.24,3.8-3.17.71-6.12.16-8.86-1.58-.12-.08-.24-.15-.36-.22-.01,0-.03,0-.09.01.02.09.01.2.05.28,1.78,3.92,4.79,6.25,9.04,6.94,1.93.32,3.83.09,5.68-.58.55-.2.94-.07,1.08.34.16.44-.06.78-.62,1-5.77,2.17-12.45-.18-15.64-5.51-.18-.3-.36-.45-.71-.4-.22.03-.44,0-.67,0-1.29-.03-2.19-.92-2.2-2.21-.01-1.51,0-3.02,0-4.53,0-3.96.01-7.92,0-11.88,0-1.24.37-2.31,1.21-3.21.5-.54.73-1.18.72-1.91-.01-1.37-.01-2.74,0-4.1,0-.33-.1-.55-.35-.77-2.11-1.88-2.1-5.12,0-7,.48-.43,1.02-.69,1.68-.65.38.03.76,0,1.14.01.41.02.65.25.67.66.02.42-.21.67-.61.72-.38.05-.77-.02-1.14.04-.29.05-.63.14-.84.33-1.23,1.09-1.41,3-.44,4.34.37.51.82.81,1.52.8,2.67-.03,5.34-.03,8.02,0,.61,0,1.04-.23,1.39-.67,1.08-1.33.93-3.36-.36-4.49-.2-.18-.53-.3-.8-.31-1.18-.03-2.35-.01-3.53-.02-.14,0-.29.01-.43-.02-.39-.08-.63-.31-.61-.72.02-.41.26-.66.67-.66,1.46-.01,2.93-.03,4.39.02.32,0,.68.2.95.39,2.36,1.73,2.49,5.3.27,7.24-.25.22-.35.44-.35.77.02,1.35,0,2.7,0,4.06,0,.75.23,1.41.74,1.96.83.9,1.2,1.94,1.19,3.17-.02,5.2,0,10.4,0,15.61,0,.18,0,.37,0,.67.43-.24.77-.43,1.1-.63.06-.04.1-.15.11-.24.22-1.12.44-2.24.66-3.36.4-2.02.3-4-.2-6-.26-1.04-.39-2.12-.46-3.2-.08-1.23.53-2.16,1.59-2.79.4-.24.45-1.21.08-1.48-.39-.29-.47-.74-.17-1.07q.44-.49.37-1.25c-.21,0-.42,0-.64,0-.78-.02-1.23-.46-1.24-1.26-.01-.81-.01-1.62,0-2.43.03-1.72,1.27-3.05,3-3.07,3.02-.04,6.04-.04,9.07,0,1.76.02,3.01,1.38,3.02,3.15,0,.75,0,1.5,0,2.24,0,.93-.44,1.36-1.38,1.36-.16,0-.31,0-.52,0Zm-15.82,6.34c-.82,0-1.6,0-2.38,0-.64,0-1.08-.26-1.32-.89-.43-1.12-1.32-1.75-2.42-1.74-1.11,0-1.98.62-2.42,1.75-.22.57-.62.87-1.23.88-.52,0-1.05,0-1.57,0-.29,0-.59,0-.88,0v10.25h12.21v-10.25Zm4.23,11.63c.49-.47.89-.91,1.34-1.26.28-.21.37-.41.37-.75-.01-1.67,0-3.34,0-5.01,0-1.09.41-1.51,1.49-1.51,2.64,0,5.28,0,7.91,0,.17,0,.34,0,.63,0,.11-.95.26-1.87.31-2.8.06-1.09-.67-1.81-1.75-1.81-2.91,0-5.82,0-8.72,0-1.09,0-1.82.72-1.75,1.81.06.88.15,1.78.38,2.63.57,2.16.71,4.32.3,6.51-.13.7-.32,1.38-.51,2.17Zm-4.22-13.05c.03-1.1.2-2.2-.56-3.09-.63-.74-1.15-1.51-1.31-2.5-2.77,0-5.5,0-8.24.01-.11,0-.25.17-.32.3-.33.61-.54,1.32-.98,1.82-.93,1.03-.89,2.2-.81,3.47.65,0,1.27-.02,1.89,0,.32.01.51-.07.65-.39.38-.86,1.03-1.48,1.88-1.88,1.98-.92,4.29-.09,5.26,1.88.07.15.23.36.35.37.71.04,1.42.02,2.18.02Zm16.3-6.36c0-.79.01-1.53,0-2.27-.02-.93-.7-1.64-1.63-1.64-3-.01-6.01-.01-9.01,0-.78,0-1.5.56-1.56,1.28-.07.86-.02,1.73-.02,2.63h12.22Zm-8.92,12.33v5.09c1.04-.06,1.98.13,2.89.57.49.24.83.08,1.06-.43.53-1.16.54-2.33.01-3.5-.24-.53-.12-.91.3-1.09.41-.18.76,0,1,.53.45,1.01.64,2.06.43,3.16-.09.46-.21.91-.32,1.37h3.04c-.45-1.9-.53-3.77-.22-5.69h-8.17Zm-17.69-13.01h8.37v-3.41h-8.37v3.41Zm10.33,20.18h-12.23c-.02.07-.03.1-.03.13,0,.59,0,1.18,0,1.76,0,.89.3,1.14,1.18.97-.02-.14-.05-.28-.06-.42-.08-.98.75-1.78,1.71-1.61.31.06.62.24.89.42,2.51,1.61,5.22,2.06,8.11,1.36.22-.05.44-.1.43-.4,0-.73,0-1.46,0-2.21Zm12.84,2.78c.93,0,1.85.05,2.75-.02.42-.03.69-.41.68-.86,0-.55-.06-1.11-.12-1.66-.01-.1-.16-.26-.25-.26-1.28-.02-2.56-.01-3.93-.01.58.89.94,1.77.86,2.81Zm1.51-20.82h-8.36v.96h8.36v-.96Zm0,2.44h-8.37v.92h8.37v-.92Z"/></svg>