<?xml version="1.0" encoding="UTF-8"?><svg id="Capa_1" xmlns="http://www.w3.org/2000/svg" viewBox="0 0 43 43"><defs><style>.cls-1{stroke-width:0px;}</style></defs><path class="cls-1" d="m3.96,43s-.06-.05-.1-.07c-.93-.34-1.34-.91-1.34-1.89,0-3.43,0-6.86-.01-10.29,0-.21-.09-.46-.22-.64C.27,27.35-.21,24.35,1.09,21.19c1.31-3.16,3.77-4.95,7.15-5.47.29-.04.59-.05.88-.06.53-.02.82.2.83.61,0,.4-.24.63-.76.64-1.36.04-2.62.39-3.79,1.08-4.02,2.38-4.98,7.87-1.99,11.46.26.31.37.62.37,1.03-.01,3.46,0,6.91,0,10.37,0,.74.14.87.88.87,1.88,0,3.75,0,5.63,0h.42c-.26-.4-.48-.77-.73-1.11-.06-.08-.25-.1-.37-.11-.9,0-1.79,0-2.69,0-1.26,0-1.97-.71-1.97-1.98,0-2.87,0-5.74,0-8.61,0-.28-.07-.49-.27-.7-1.74-1.89-2.2-4.1-1.42-6.5.78-2.42,2.47-3.9,5-4.38.31-.06.64-.07.96-.07,1.99,0,3.98-.02,5.96,0,3.66.04,6.51,2.97,6.39,6.58-.06,1.71-.65,3.22-1.84,4.47-.15.15-.17.42-.3.74.71-.35,1.28-.62,1.85-.92.1-.05.17-.18.24-.28,3.08-4.51.33-10.95-5.07-11.79-1.23-.19-2.51-.11-3.77-.15-.2,0-.39,0-.59-.02-.34-.05-.52-.26-.52-.6,0-.34.18-.55.51-.62.01,0,.03,0,.04,0,2.03.02,4.09-.22,6.06.53,1.22.46,2.29,1.14,3.27,2.08.05-.16.1-.28.13-.41,1.09-4.06,2.17-8.12,3.27-12.19C25.82,2.15,28.94-.15,32.57,0c3.48.15,6.42,2.78,7.06,6.33.2,1.12.12,2.23-.18,3.32-1.72,6.41-3.44,12.82-5.16,19.23-.02.07-.03.14-.05.2-.14.4-.44.58-.8.48-.33-.1-.5-.4-.41-.81.17-.68.36-1.35.54-2.03,1.56-5.84,3.14-11.68,4.69-17.53,1.09-4.13-2.1-8.09-6.36-7.94-2.63.09-5,1.96-5.75,4.52-.14.47-.25.94-.38,1.44,1.05.28,2.06.56,3.06.83.7.19,1.41.36,2.1.57,1.3.4,2.05,1.72,1.73,3-.33,1.3-1.65,2.13-2.98,1.8-1.64-.4-3.27-.86-4.9-1.29-.08-.02-.16-.04-.31-.07-.18.68-.37,1.36-.56,2.08,1.02.27,2,.54,2.98.8.72.19,1.43.38,2.14.58,1.34.39,2.12,1.74,1.76,3.05-.36,1.32-1.69,2.1-3.04,1.76-1.64-.42-3.27-.86-4.9-1.3-.06-.02-.13-.03-.33-.08.06.33.06.6.16.82.22.48.47.95.74,1.41.09.16.28.31.45.36,1.09.31,2.19.58,3.28.89,1.26.35,2.01,1.48,1.86,2.78-.13,1.15-1.16,2.09-2.4,2.12-.45,0-.91-.14-1.35-.24-.46-.1-.91-.24-1.37-.36-.25.66-.49,1.3-.75,1.99,1.96-.14,3.47.6,4.45,2.25.69-.14,1.35-.37,2.01-.38,2.69-.03,4.88,1.07,6.53,3.18.34.43.65.6,1.19.59,2.44-.02,4.53,1.61,5.15,3.97.23.87.25,1.74-.03,2.61-.36,1.12-1.14,1.79-2.27,2.06h-14.61c-.25-.22-.39-.47-.38-.83.01-2.31,0-4.62,0-6.93,0-1.12.31-2.12,1.02-2.99.43-.53.43-.54,0-1.07-.16-.2-.33-.38-.53-.54-.97-.79-2.08-.8-3.23-.53-2.54.6-4.61,3.03-4.78,5.75-.11,1.91-.05,3.83-.06,5.75,0,.04.03.07.06.13,1.68,0,3.35,0,5.03,0,.36,0,.69.05.82.44.13.38-.09.64-.4.83H3.96Zm5.85-3.75c.16-2.31,1.28-3.87,3.35-4.72.94-.38,1.91-.74,2.9-.95.68-.15,1-.49,1.39-1.03.69-.97.94-1.98.81-3.13-.04-.33.1-.58.35-.81,1.63-1.54,2.1-3.74,1.26-5.85-.83-2.07-2.58-3.24-4.87-3.24-1.86,0-3.72,0-5.58,0-.38,0-.76.01-1.13.09-2.05.43-3.33,1.73-3.89,3.69-.56,1.98-.15,3.77,1.36,5.23.3.29.43.58.43.99-.01,2.9,0,5.79,0,8.69,0,.17,0,.34,0,.5.02.31.18.52.49.52,1.03.01,2.06,0,3.12,0Zm23.33,2.47c0-.2,0-.35,0-.51,0-1.02,0-2.04,0-3.06,0-1.46.64-2.57,1.89-3.33.07-.04.12-.09.27-.21-.58-.53-1.09-1.07-1.67-1.51-1.09-.81-2.34-1.24-3.7-1.27-2.03-.05-3.47,1.32-3.5,3.35-.03,2.1,0,4.19,0,6.29,0,.08.02.16.03.25h6.69Zm1.29.01c1.83,0,3.63.03,5.43-.01.82-.02,1.44-.73,1.5-1.59.19-2.72-2.05-4.84-4.77-4.51-1.14.14-2.09,1.02-2.14,2.13-.06,1.31-.01,2.62-.01,3.99Zm-17.9-7.01c-1.49.39-2.94.76-4.13,1.73-.63.52-1.03,1.21-1.22,2.01-.43,1.82.72,3.28,2.59,3.28.74,0,1.48,0,2.22,0,.11,0,.21-.02.31-.03.12-2.32-.15-4.61.23-6.98Zm8.25-23.88c1.79.48,3.52.96,5.27,1.39.73.18,1.44-.52,1.4-1.29-.03-.55-.37-.96-.96-1.13-1.34-.37-2.69-.73-4.04-1.09-.33-.09-.67-.18-1.03-.27-.22.8-.42,1.57-.64,2.38Zm-1.85,6.9c.12.04.21.07.3.1,1.58.42,3.15.85,4.73,1.27.78.21,1.38-.14,1.57-.89.18-.71-.19-1.29-.96-1.5-1.27-.34-2.53-.68-3.8-1.02-.4-.11-.79-.21-1.21-.32-.22.81-.42,1.58-.63,2.36Zm1.07,7.66c.08.05.11.09.15.1.67.18,1.34.38,2.02.54.74.18,1.3-.17,1.5-.89.18-.69-.15-1.28-.86-1.48-.88-.25-1.78-.48-2.67-.72-.06-.02-.13,0-.15,0v2.46Z"/></svg>