<?xml version="1.0" encoding="UTF-8"?><svg id="Capa_1" xmlns="http://www.w3.org/2000/svg" viewBox="0 0 43 43"><defs><style>.cls-1{stroke-width:0px;}</style></defs><path class="cls-1" d="m33.08,12.18c-.24,0-.32,0-.39,0-1.02-.02-1.17-.16-1.17-1.16,0-1.22,0-2.45,0-3.67,0-.64.25-.89.89-.9,2.74,0,5.49,0,8.23,0,.64,0,.89.25.89.89,0,1.27,0,2.54,0,3.8,0,.82-.2,1.02-1.03,1.03-.12,0-.24,0-.49,0,.13.26.19.49.32.64.62.65,1.26,1.28,1.89,1.9.51.5.75,1.09.74,1.81,0,1.79-.03,3.58,0,5.37.02.9-.23,1.64-.91,2.23-.07.06-.12.13-.17.19,0,.04,0,.08.02.1.91.74,1.09,1.72,1.07,2.84-.05,2.85-.04,5.7,0,8.55.02,1.12-.13,2.12-1.17,2.84.18.18.32.32.46.47.69.73.9,1.58.5,2.51-.4.91-1.15,1.34-2.13,1.35-2.74,0-5.49,0-8.23,0-.99,0-1.73-.44-2.13-1.35-.41-.93-.19-1.78.51-2.51.13-.14.31-.23.57-.4-1.4-.89-1.28-2.15-1.27-3.4.02-2.81.03-5.61,0-8.42-.01-.94.22-1.73.95-2.35.06-.05.1-.11.14-.16-.01-.05,0-.09-.03-.1-.88-.72-1.11-1.65-1.07-2.75.06-1.67.02-3.34.01-5.01,0-.71.24-1.31.74-1.8.64-.63,1.27-1.26,1.89-1.9.14-.14.2-.36.35-.64Zm1.33,25.78h.52c1.67,0,3.34,0,5.01,0,.87,0,1.61-.74,1.61-1.62,0-3-.04-6,.02-8.99.02-.92-.2-1.61-.92-2.18-.22-.17-.45-.45-.5-.71-.05-.25.13-.54.21-.81h-7.72c.45.72.43.88-.2,1.5-.16.16-.31.33-.48.47-.35.29-.46.65-.46,1.1.01,2.86.06,5.73-.02,8.59-.03,1.13.15,2.05,1.12,2.72.02.02.04.04.06.06.37.4.38.75,0,1.14-.27.28-.54.55-.82.82-.28.27-.44.57-.28.96.16.4.49.52.9.52,1,0,2,0,3,0,1.71,0,3.43,0,5.14,0,.57,0,.93-.33.92-.81,0-.49-.86-1.34-1.36-1.34-1.37,0-2.74,0-4.11,0h-1.66v-1.43Zm7.12-21.45h-9.97v5.67h9.97v-5.67Zm-8.55-5.78h7.11v-2.81h-7.11v2.81Zm5.75,1.48h-4.37c.25.85-.26,1.33-.79,1.82-.33.3-.63.63-1,.99h7.98c-.41-.4-.74-.74-1.09-1.05-.53-.46-.96-.95-.73-1.76Z"/><path class="cls-1" d="m2.76,20.06c-.19-.71-.43-1.39-.54-2.08-.19-1.19.16-2.23,1.18-2.94.95-.66,1.97-.71,3-.18,1.11.57,1.69,1.79,1.46,3.15-.12.68-.35,1.34-.53,2.04.07,0,.2.02.32.02,1.21,0,2.42,0,3.62,0,.61,0,.8.14.95.72.22.85.43,1.7.64,2.56.04.19.06.38.06.57,0,5.07,0,10.14,0,15.21,0,.24-.03.48-.09.71-.2.84-.42,1.68-.62,2.51-.1.42-.36.63-.8.63-3.28,0-6.56,0-9.84,0-.46,0-.7-.22-.83-.66C.26,40.63-.03,38.92,0,37.13c.07-4.12.03-8.23.01-12.35,0-.84.07-1.66.31-2.47.15-.51.26-1.04.4-1.56.14-.54.34-.69.88-.7.4,0,.8,0,1.15,0Zm1.56,18.6c0-1.05.02-2.06,0-3.07-.04-2.37.79-4.38,2.42-6.1.57-.61,1.02-1.36,1.38-2.11.45-.93.57-1.95.47-2.98H1.48v14.27h2.84Zm5.75-14.28c0,.08-.02.13-.02.19.05,2.46-.83,4.53-2.57,6.26-.72.71-1.18,1.6-1.46,2.58-.49,1.73-.17,3.49-.28,5.24h1.42c.01-.07.03-.12.02-.16-.06-2.46.82-4.52,2.55-6.27.95-.95,1.54-2.15,1.65-3.49.11-1.27.07-2.56.09-3.84,0-.17,0-.34,0-.52h-1.41ZM2.02,41.53h8.91c.11-.46.23-.92.35-1.4H1.67c.12.48.23.94.35,1.4Zm-.35-18.63h9.6c-.12-.49-.24-.94-.35-1.39H2.01c-.11.46-.22.91-.34,1.39Zm9.8,9.59c-1.79,1.68-3.05,3.58-2.82,6.16h2.82v-6.16Zm-7.8-15.34h2.78c-.21-.82-.78-1.27-1.52-1.21-.67.05-1.17.55-1.25,1.21Zm.08,1.5c.29.48.48.96.82,1.27.18.17.76.17.94,0,.34-.31.53-.79.83-1.27h-2.59Z"/><path class="cls-1" d="m18.01,4.33c-.2-.02-.26-.03-.32-.03-.93.08-1.28-.18-1.2-1.26.03-.46-.01-.93.08-1.38.2-.97,1.03-1.65,2.01-1.65,1.95-.02,3.91-.02,5.86,0,1.13.01,2.03.93,2.07,2.06.02.45,0,.89,0,1.34,0,.63-.26.88-.91.88-.16,0-.32,0-.61,0,.1.94.07,1.87.31,2.72.95,3.4,1.96,6.78,2.98,10.16.4,1.31.29,2.62.17,3.95-.29,3.31-.58,6.62-.87,9.94-.07.83-.13,1.67-.22,2.49-.1.9-.02,1.78.27,2.64.31.93.68,1.86.85,2.82.36,2-1.2,3.9-3.23,3.94-2.5.05-5.01.05-7.51,0-2.17-.05-3.72-2.21-3.16-4.31.15-.56.32-1.12.54-1.66.59-1.41.61-2.85.46-4.34-.3-2.97-.53-5.94-.79-8.91-.11-1.2-.21-2.41-.32-3.61-.1-1.01-.02-1.99.27-2.96,1.01-3.38,2.03-6.76,2.97-10.16.23-.84.2-1.76.3-2.68Zm1.34,0c0,.58.02,1.15,0,1.71-.01.34-.05.68-.15,1.01-1.03,3.53-2.09,7.05-3.08,10.59-.2.73-.28,1.54-.22,2.29.34,4.28.71,8.56,1.12,12.83.16,1.65.05,3.24-.59,4.78-.16.4-.28.82-.41,1.23-.48,1.51.46,2.78,2.04,2.79,2.3,0,4.59,0,6.89,0,1.56,0,2.49-1.29,2.02-2.77-.25-.78-.51-1.56-.77-2.33-.31-.92-.38-1.86-.29-2.82.08-.85.16-1.69.23-2.54.29-3.34.58-6.68.87-10.02.1-1.2.22-2.39-.15-3.59-1.03-3.37-2.01-6.76-2.99-10.15-.14-.49-.19-1.02-.23-1.53-.04-.48,0-.97,0-1.46h-4.3Zm5.73-1.47c0-.27.01-.49,0-.71-.03-.42-.29-.7-.72-.7-1.91-.01-3.81-.01-5.72,0-.43,0-.69.28-.71.71-.01.23,0,.46,0,.7h7.16Z"/><path class="cls-1" d="m38.85,26.12c.36.25.72.51,1.11.79-1.93,3.06-1.95,6.13,0,9.23-.19.14-.38.27-.57.41-.18.13-.36.26-.54.38-2.34-3.02-2.36-7.76,0-10.81Z"/><path class="cls-1" d="m34.23,26.12c2.32,2.99,2.37,7.72,0,10.81-.37-.26-.74-.53-1.11-.79,1.93-3.08,1.94-6.13,0-9.22.37-.27.74-.53,1.11-.79Z"/><path class="cls-1" d="m25.08,21.48c0,.39-.31.72-.7.73-.39,0-.72-.31-.73-.7,0-.39.31-.72.69-.73.39,0,.72.31.73.7Z"/><path class="cls-1" d="m21.53,25.07c-.39.01-.72-.3-.73-.69-.01-.39.3-.72.69-.73.39-.01.72.3.73.69.01.39-.3.72-.69.73Z"/><path class="cls-1" d="m23.66,24.35c0-.39.33-.71.72-.7.39,0,.71.33.7.72,0,.39-.34.71-.72.7-.39,0-.71-.33-.7-.72Z"/><path class="cls-1" d="m20.79,21.48c0-.39.33-.71.72-.7.39,0,.71.33.7.72,0,.39-.34.71-.72.7-.39,0-.71-.33-.7-.72Z"/><path class="cls-1" d="m19.35,21.48c0,.39-.31.72-.7.73-.39,0-.72-.31-.73-.7,0-.39.31-.72.7-.73.39,0,.72.31.73.7Z"/><path class="cls-1" d="m19.35,27.23c0,.39-.34.71-.72.7-.39,0-.71-.34-.7-.72,0-.39.33-.71.72-.7.39,0,.71.33.7.72Z"/><path class="cls-1" d="m22.22,27.24c-.01.39-.34.71-.73.69-.39-.01-.7-.34-.69-.73.01-.39.34-.7.73-.69.39.01.7.34.69.73Z"/><path class="cls-1" d="m24.35,26.51c.39-.01.72.3.73.69.01.39-.3.72-.69.73-.39.01-.72-.3-.73-.69-.01-.39.3-.72.69-.73Z"/><path class="cls-1" d="m19.35,30.09c0,.39-.32.71-.71.71-.39,0-.71-.32-.71-.71,0-.39.32-.71.71-.71.39,0,.71.32.71.71Z"/><path class="cls-1" d="m21.51,29.37c.39,0,.71.33.71.71,0,.39-.33.71-.71.71-.39,0-.71-.33-.71-.71,0-.39.32-.71.71-.71Z"/><path class="cls-1" d="m24.36,30.8c-.39,0-.71-.33-.7-.72,0-.39.33-.71.72-.71.39,0,.71.33.71.72,0,.39-.33.71-.72.71Z"/><path class="cls-1" d="m19.35,24.37c0,.39-.34.71-.72.7-.39,0-.71-.34-.7-.72,0-.39.33-.71.72-.7.39,0,.71.33.7.72Z"/></svg>