<?xml version="1.0" encoding="UTF-8"?><svg id="Capa_1" xmlns="http://www.w3.org/2000/svg" viewBox="0 0 34 43"><defs><style>.cls-1{stroke-width:0px;}</style></defs><path class="cls-1" d="m3.04,6.64c-.18,1.07-.36,2.14-.53,3.21-.12.79-.2,1.58-.31,2.38-.08.56-.42.87-.87.82-.46-.05-.73-.42-.65-.99.28-1.99.65-3.98.88-5.97.13-1.15.06-2.33.09-3.49,0-.29.02-.58.08-.85C1.97.73,2.84.04,3.88,0c.13,0,.26,0,.38,0,8.5,0,16.99,0,25.49,0,1.7,0,2.68.91,2.59,2.6-.14,2.55.39,5.02.74,7.52.64,4.59.91,9.19.76,13.82-.14,4.42-.66,8.79-1.43,13.14-.19,1.09-.04,2.23-.05,3.35,0,.27-.02.55-.08.81-.24,1.01-1.11,1.71-2.14,1.75-.13,0-.26,0-.38,0-8.5,0-16.99,0-25.49,0-1.73,0-2.71-.91-2.61-2.63.14-2.5-.37-4.93-.72-7.38C.28,28.47.02,23.93.15,19.36c.03-1.04.09-2.08.14-3.12.03-.59.34-.92.83-.89.46.03.71.38.7.96-.03,2.91-.14,5.82-.07,8.73.09,3.71.57,7.39,1.23,11.05.05.29.21.31.43.3.94,0,1.89,0,2.83,0,5.95,0,11.91,0,17.86,0,.13,0,.26,0,.38,0,.61.01.95.29.95.78,0,.49-.33.76-.95.76-6.9,0-13.79,0-20.69,0-.19,0-.38,0-.61,0,0,.98-.02,1.92.01,2.86.01.39.3.62.69.67.14.02.29,0,.43,0,8.45,0,16.9,0,25.35,0,.96,0,1.16-.2,1.16-1.14,0-.78,0-1.56,0-2.4-.79,0-1.54.01-2.28,0-.65-.02-1.02-.69-.63-1.18.15-.19.48-.32.74-.34.65-.05,1.31-.03,1.97-.01.25,0,.36-.07.41-.34,1.01-5.67,1.47-11.38,1.28-17.14-.14-4-.56-7.97-1.26-11.91-.06-.33-.19-.4-.49-.4-9.04,0-18.08,0-27.12,0-.11,0-.22.02-.38.03Zm.14-1.6h27.65c0-.82,0-1.6,0-2.38,0-.91-.22-1.12-1.13-1.12-8.46,0-16.92,0-25.39,0-.13,0-.26,0-.38,0-.44.04-.73.29-.74.73-.02.91,0,1.82,0,2.77Z"/><path class="cls-1" d="m10.92,17.09c0-.52-.01-.92,0-1.31.02-.48.31-.76.75-.77.43,0,.75.28.77.75.03.62-.01,1.25.03,1.87.01.18.15.41.3.51.53.35,1.09.67,1.66.96.15.08.38.06.55,0,1.02-.34,1.37-1,1.31-2.12-.05-.88-.2-1.47-1.06-1.79-.31-.11-.59-.32-.87-.5-.41-.26-.52-.64-.32-1.02.21-.4.63-.53,1.06-.31.36.19.72.4,1.14.65,0-.58,0-1.08,0-1.59,0-.58.29-.9.77-.9.48,0,.76.33.77.9,0,.5,0,.99,0,1.58.37-.21.7-.39,1.02-.57.5-.27.93-.2,1.17.2.24.4.1.83-.39,1.12-.49.3-1.01.56-1.49.88-.15.1-.29.33-.3.5-.04.64,0,1.28-.02,1.92,0,.27.13.37.31.52.82.7,1.54.61,2.46.05.78-.48,1.19-.95,1.03-1.86-.06-.34-.02-.7,0-1.05.04-.44.35-.71.76-.7.42,0,.7.28.74.72.02.21,0,.42.01.62,0,.21,0,.41,0,.74.49-.28.9-.54,1.33-.76.19-.1.45-.24.62-.19.26.09.54.29.66.52.17.33.01.67-.31.87-.47.29-.95.56-1.5.88.4.24.74.43,1.07.64.42.27.54.66.33,1.06-.21.4-.59.51-1.06.27-.54-.28-1.06-.59-1.58-.9-.21-.13-.38-.15-.61-.01-.56.34-1.14.65-1.7.99-.11.07-.24.2-.25.31-.03.48-.02.96,0,1.44,0,.1.1.23.2.29.6.36,1.21.72,1.83,1.05.12.06.34.04.47-.02.54-.28,1.05-.6,1.59-.9.46-.26.9-.16,1.12.23.22.39.09.82-.36,1.1-.32.2-.65.38-1.05.62.51.29.95.54,1.38.8.49.29.62.69.38,1.12-.23.4-.61.48-1.12.22-.45-.23-.89-.5-1.43-.8,0,.45,0,.82,0,1.2-.01.56-.27.86-.74.88-.48.01-.78-.3-.79-.88-.01-.59.02-1.18-.02-1.77,0-.17-.14-.39-.28-.48-.55-.35-1.12-.68-1.7-.98-.13-.07-.34-.08-.47-.02-.39.19-.76.41-1.12.65-.1.06-.19.22-.19.33-.02.7-.02,1.41,0,2.11,0,.14.13.32.25.39.51.32,1.05.61,1.57.92.47.29.59.68.35,1.09-.24.4-.64.49-1.12.24-.32-.17-.64-.36-.96-.54-.01,0-.03,0-.11.01,0,.49,0,1,0,1.5,0,.58-.28.91-.76.91-.48,0-.77-.32-.78-.89,0-.51,0-1.01,0-1.59-.41.23-.75.43-1.1.62-.46.24-.9.13-1.11-.27-.21-.39-.08-.79.36-1.05.51-.31,1.01-.61,1.54-.88.25-.13.33-.29.32-.56-.02-.64.01-1.28-.02-1.92,0-.15-.12-.36-.25-.44-1.22-.78-1.19-.72-2.48-.08-.83.41-1.22.91-1.05,1.84.06.31.02.64,0,.96-.03.51-.32.81-.77.8-.45,0-.74-.3-.75-.81-.01-.38,0-.77,0-1.27-.48.27-.87.51-1.29.73-.19.1-.41.21-.62.22-.36.02-.61-.18-.72-.52-.11-.36,0-.67.32-.88.47-.29.96-.56,1.51-.89-.38-.22-.7-.41-1.02-.6-.47-.29-.62-.73-.38-1.13.23-.38.66-.47,1.13-.21.52.29,1.02.6,1.54.87.14.07.37.1.51.03.61-.32,1.2-.67,1.79-1.02.03-.02.06-.03.08-.05.29-.23.2-1.83-.12-2.01-.57-.33-1.13-.67-1.71-.97-.15-.08-.4-.07-.55,0-.53.27-1.03.58-1.54.87-.47.26-.9.18-1.13-.2-.24-.4-.1-.84.37-1.13.31-.19.63-.37,1.04-.6-.49-.29-.93-.53-1.36-.79-.52-.31-.66-.67-.42-1.1.24-.45.65-.53,1.19-.22.43.24.85.48,1.37.78Zm4.5,4.34c.05.35-.02.81.17.97.39.35.92.77,1.39.76.49,0,.99-.45,1.45-.76.11-.08.11-.38.1-.57-.02-.43.08-1-.15-1.27-.33-.38-.91-.75-1.38-.75-.47,0-.99.41-1.4.75-.18.15-.13.58-.18.86Z"/></svg>