<?xml version="1.0" encoding="UTF-8"?><svg id="Capa_1" xmlns="http://www.w3.org/2000/svg" viewBox="0 0 43 43"><defs><style>.cls-1{stroke-width:0px;}</style></defs><path class="cls-1" d="m32.98,34.8c0-1.55,1.26-2.81,2.8-2.8,1.55,0,2.8,1.27,2.79,2.81,0,1.55-1.27,2.81-2.8,2.8-1.55,0-2.79-1.27-2.79-2.82Zm4.33,0c0-.86-.69-1.55-1.54-1.54-.85,0-1.53.69-1.53,1.55,0,.86.69,1.54,1.54,1.54.85,0,1.53-.7,1.53-1.55Z"/><path class="cls-1" d="m33.24,30.61c0,1.13-.94,2.06-2.07,2.05-1.1,0-2.03-.94-2.03-2.05,0-1.13.94-2.06,2.07-2.05,1.11.01,2.03.94,2.03,2.04Zm-2.05-.78c-.41,0-.78.36-.79.77,0,.41.35.78.76.8.43.01.81-.37.81-.79,0-.41-.37-.78-.78-.78Z"/><path class="cls-1" d="m7.48,43c-.88-.08-1.75-.18-2.63-.25-1.29-.11-1.95-.73-2.16-2.03-.23-1.46-.48-2.92-.72-4.39-.01-.07-.03-.13-.05-.2-.21-.02-.41-.02-.6-.05-.83-.17-1.39-.91-1.32-1.74.07-.81.73-1.44,1.55-1.49.31-.02.61,0,.86,0,.33-.93.63-1.81.95-2.69.12-.33.37-.49.73-.42.32.06.49.28.49.59,0,.17-.09.35-.15.52-.22.64-.45,1.29-.69,1.98h10.61c0-.07.01-.13,0-.19-.48-1.87-1.3-3.57-2.67-4.96-.58-.59-1.25-1.04-2.07-1.2-.85-.17-1.63.05-2.29.57-.56.44-1.04.97-1.53,1.48-.33.34-.7.39-.99.1-.22-.23-.27-.51-.08-.77,1.03-1.37,2.25-2.47,4.04-2.66,1.08-.12,2.04.25,2.92.85.11.08.22.15.41.27,0-.21,0-.36,0-.51.05-3.16.09-6.33.16-9.49.07-3.04,1.34-5.46,3.81-7.25.03-.02.06-.06.03-.02-.25-.51-.57-.96-.7-1.46-.27-1.06.28-2.11,1.28-2.56.3-.13.38-.29.37-.59-.03-.56-.01-1.12,0-1.68C17.04,1.09,18.14,0,19.78,0c1.71,0,3.41,0,5.12,0,1.64,0,2.73,1.09,2.76,2.73.01.6-.01,1.2.01,1.8,0,.14.12.34.24.4,1.62.79,1.95,2.58.69,3.89-.03.03-.05.06-.1.12.26.21.53.4.78.62.32.27.38.65.16.92-.23.29-.62.35-.93.06-.98-.93-2.12-1.18-3.45-1.13-2.26.08-4.53.02-6.8.03-.19,0-.4.02-.57.1-2.25,1.16-3.6,3-4.08,5.47-.02.09-.02.19-.03.33.13,0,.24.02.36.03,1.96.03,3.92.05,5.88.09,1.57.03,2.42.77,2.51,2.32.08,1.38.06,2.77-.02,4.15-.07,1.16-1.04,1.97-2.26,2-2.08.04-4.17.07-6.25.1-.14,0-.27,0-.45,0,0,1.19,0,2.35,0,3.51,0,.1.07.21.13.29,1.04,1.44,1.75,3.01,2.14,4.74.01.06.05.12.11.23.42-1.84,1.08-3.51,2.21-4.95.56-.71,1.23-1.39,1.97-1.92,1.63-1.16,3.53-1.07,5.13.21.68.54,1.22,1.26,1.82,1.9.09.1.16.22.27.37.16-.32.31-.6.45-.88.83-1.66,1.65-3.33,2.52-4.98.25-.48.67-.88,1.01-1.31.07-.09.17-.2.17-.3-.05-1.86-.09-3.72-.2-5.58-.06-1.04-.46-2.01-.99-2.91-.19-.32-.22-.64.08-.91.31-.27.74-.16.98.25.74,1.23,1.17,2.57,1.24,4.01.07,1.61.11,3.22.16,4.85.27.03.53.04.79.08.98.16,1.7.69,2.16,1.57.34.64.66,1.3.98,1.95.29.59.15.91-.47,1.11-.66.21-1.07.66-1.16,1.35-.09.67.18,1.21.75,1.58.55.35,1.26.31,1.82-.08.59-.41.89-.34,1.22.31,1.33,2.65,2.67,5.29,3.99,7.94.15.3.24.62.36.93v.84c-.2.64-.47,1.22-1.02,1.64-1.69,1.31-3.57,2.25-5.66,2.72-.81.19-1.65.29-2.47.43h-2.02s-.07-.04-.11-.05c-1.15-.23-2.29-.47-3.44-.69-.12-.02-.26.03-.38.07-.43.13-.85.34-1.3.4-.88.13-1.77.18-2.66.26h-7.89c-.8-.2-1.56-.73-2.43-.27-.07.04-.16.01-.25.02-.87.08-1.74.17-2.61.25h-3.27Zm20.77-6.87H3.19c.28,1.61.54,3.19.83,4.76.07.4.39.55.77.59.47.04.95.09,1.42.13,2.43.22,4.86.13,7.29-.14.4-.05.66-.28.71-.7.06-.44.12-.89.2-1.33.14-.77.64-1.19,1.35-1.17.7.02,1.18.48,1.29,1.24.06.42.11.83.18,1.25.07.44.3.67.74.73,2.92.34,5.83.34,8.75,0,.43-.05.68-.3.75-.73.04-.28.09-.55.13-.83.22-1.25.43-2.5.66-3.79Zm12.98.33c-1.16-2.31-2.33-4.63-3.49-6.95-1.84.49-3.12.05-3.82-1.28-.72-1.37-.35-2.6,1.2-3.94-.22-.44-.45-.89-.67-1.34-.32-.65-.84-1.02-1.56-1.02-.72,0-1.24.36-1.56,1.01-1.1,2.19-2.2,4.37-3.28,6.56-.07.14-.06.37,0,.53.2.6.44,1.18.65,1.77.11.32.08.76.29.94.2.17.63.07.96.1.88.08,1.51.79,1.5,1.67-.02.85-.67,1.54-1.53,1.59-.13,0-.27,0-.38,0-.15.95-.29,1.83-.43,2.71,3.67,1.23,8.72.55,12.15-2.36Zm-24.21-3.64h10.58c-.16-1.61-1.59-4.24-2.94-5.4-1.58-1.37-3.18-1.36-4.72.06-1.55,1.44-2.39,3.27-2.92,5.34Zm-3.55-16.15c-.04,2.03-.09,4.04-.13,6.14,2.32-.05,4.57-.09,6.81-.15.54-.02.91-.4.92-.96.03-1.31.04-2.62,0-3.93-.02-.67-.4-1-1.08-1.03-.49-.03-.98-.05-1.47-.05-1.66,0-3.32,0-5.06,0Zm4.84-11.92h8.05c0-.83.05-1.64-.02-2.44-.05-.58-.64-1.04-1.25-1.04-1.84-.01-3.69-.01-5.53,0-.6,0-1.2.48-1.24,1.05-.06.8-.02,1.61-.02,2.43Zm4.03,1.28c-1.54,0-3.08,0-4.62,0-.68,0-1.16.45-1.16,1.06,0,.6.46,1.06,1.11,1.07,3.1,0,6.21.01,9.31,0,.26,0,.55-.13.76-.28.35-.25.43-.73.29-1.14-.15-.43-.53-.69-1.04-.7-1.55,0-3.1,0-4.66,0Zm-6.59,28.82c4.56,0,9.12,0,13.68,0,.13,0,.28.04.37-.01.14-.08.34-.24.33-.34-.02-.14-.19-.29-.33-.39-.08-.05-.22-.01-.33-.01-9.16,0-18.33,0-27.49,0-.11,0-.25-.04-.33.01-.15.09-.26.24-.38.37.13.12.24.28.38.36.09.05.25.01.37.01,4.57,0,9.15,0,13.72,0Zm12.94,6.21c.21.06.38.12.55.17,1.66.46,3.35.61,5.06.42,2.58-.29,4.89-1.22,6.93-2.83.33-.26.5-.61.48-1.09-3.93,2.8-8.21,3.57-12.88,2.38-.05.33-.1.62-.14.94Zm-13.32.42c.27.07.52.14.75.21-.13-.75-.24-1.43-.36-2.12-.03,0-.06,0-.09,0-.1.61-.19,1.22-.3,1.91Z"/></svg>