<?xml version="1.0" encoding="UTF-8"?><svg id="Capa_1" xmlns="http://www.w3.org/2000/svg" viewBox="0 0 40 43"><defs><style>.cls-1{stroke-width:0px;}</style></defs><path class="cls-1" d="m20.18.45c.49.51.93,1.36.93,1.36,0,0,1.89-.26,2.61.91.29.47.58.95.6,1.57.05,1.39-.89,2.41-2.39,2.58-.8.09-1.24.73-.84,1.35,1.89,2.95,1.95,6.18,1.51,9.49-.16,1.18-.44,2.35-.68,3.63.89-.32,1.68-.66,2.5-.87.06-.01.11-.02.18,0,.47.06.69.66.36,1-.04.04-.09.08-.14.1-2.09.84-4.2,1.62-6.38,2.45,1.76,2.43,1.66,5.02.81,7.85,1.07-.41,2.72-.97,2.72-.97,0,0,.43-.58.68-.9,1.02-1.32,3.18-2.1,6.72-1.87,2.67-.93,4.35-1.76,5.26-2.67,1.4-1.41,1.07-2.83.63-3.86-.7-1.65-2.59-2.64-4.3-2.19-.95.25-1.85.68-2.8.93-.34.09-.71-.01-.81-.22-.21-.42-.02-.76.43-.93.36-.13.72-.25,1.08-.39,2.91-1.1,4.62-.88,6.25.43.12-.21.24-.43.37-.64.46-.78,1.3-1.11,2.12-.82.85.3,1.36,1.14,1.13,2.05-.12.49-.14.8.31,1.14.95.71,1.13,1.54.63,2.4-.46.79-1.28,1.02-2.34.67-.15-.05-.29-.11-.57-.22-.26,1.8-1.33,2.77-2.51,3.49s-2.51,1.21-3.39,1.69c.68,1.26,1.2,2.38,1.81,3.62.43.86.08,1.61-.52,2.26-1.48,1.6-5.31,2.36-7.22,1.34-.57-.31-1.05-.91-1.41-1.48-.5-.8-.85-1.69-1.3-2.62-1.38.52-2.71.95-3.98,1.5-2.32,1.01-3.47.18-4.32-2.04-.08-.21-.15-.41-.19-.5-1.63-.11-3.21-.15-4.77-.36-.8-.11-1.58-.46-2.32-.81-.05-.02-.09-.06-.13-.11-.31-.37-.04-.96.44-.98.06,0,.12,0,.18.03,1.77.74,3.58,1.09,5.5.89.56-.06,1.13-.14.8-1.08-1.09,0-2.23.13-3.34-.02-3.93-.55-7.3-3.8-7.78-7.37-.56-4.18,2.68-7.43,7.17-7.24,4.6.19,8.91,3.87,9.09,8.21,0,.09.06.17.1.28.53,0,.86-.15.78-.77-.5-3.53-2.41-6.04-5.57-7.59-3.19-1.57-6.4-1.65-9.44.35-2.94,1.92-3.98,5.82-2.41,9.15.55,1.15,1.45,2.14,2.22,3.18.29.39.85.76.37,1.26-.36.37-.93-.07-1.27-.4C.08,24.54-1.17,19.68,1.62,15.34c1.8-2.81,3.83-5.39,6.53-7.39.1-.08.2-.21.31-.22.06,0,.12,0,.18-.01.5-.02.84.54.55.94-.02.03-.04.05-.06.07-1.3,1.21-2.65,2.35-3.91,3.66,3.34-1.05,6.51-.85,9.55.78,3.01,1.62,4.95,4.1,5.96,7.47.18-.71.4-1.4.53-2.12.51-2.92.68-5.82-.64-8.6-1.41-2.97-4.19-4.12-7.5-3.13-.18.05-.99.23-1.17.28-.51.12-.66-.91-.19-1.06,1.19-.36,2.87-.64,4.1-.77.63-.07,1.03-.49.84-1.01-.83-2.27-.71-3.2,1.24-4.09.53-.24,1.77-.19,2.25.31Zm-8.68,27.07c.16,0,.32,0,.48,0,1.02.01,1.77-.19,2.05-1.42.25-1.12.94-2.08,2.1-2.57,1.3-.55,1.34-.64,1.08-2.03-.77-4.02-5.31-6.92-9.53-6.09-3.41.67-5.12,3.8-3.81,7.01,1.21,2.99,4.32,5.07,7.64,5.1Zm7.38,1.13c.04-1.25-.31-2.35-.88-3.24-.67-1.04-1.48-1.01-2.25-.03-1.2,1.53-1.33,5.06-.24,6.71.62.94,1.28.91,2.02.07.85-.97,1.33-2.29,1.36-3.51Zm7.8,4.28c1.06-.05,2.17-.41,3.13-.91.96-.51.9-1.65,0-2.23-1.45-.93-4.45-.41-5.79.69-.75.61-.03,2.57,2.67,2.45Zm-6.72-26.11c.15-.26.24-.57.44-.72.31-.23.71-.5,1.05-.47.69.06,1.28-.07,1.48-.71.13-.41.04-1.03-.21-1.38-.39-.56-1.04-.53-1.63-.21-.69.38-1.09.27-1.13-.59-.03-.68-.36-1.24-1.04-1.25-.46,0-1.04.26-1.35.6-.48.54-.09,1.09.28,1.62.19.27.19.72.17,1.08-.01.25-.21.5-.31.72.78.46,1.48.87,2.23,1.31Zm4.69,27.14c-.05.08.19.93,1.11,1.21,1.32.4,3.65.14,5.25-.96.59-.41.78-.98.21-1.66-1.93,1.64-4.18,1.82-6.56,1.4Zm12.86-14.51c.08-.23-.03-.48-.32-.48-.23,0-.51.14-.69.31-.89.87.08,3.55,1.4,3.63.21.01.52-.09.61-.21.18-.24,0-.56-.14-.65-.91-.61-1.3-1.4-.87-2.59Z"/><path class="cls-1" d="m10.08,41.95c-1.34-.96-1.87-2.22-1.87-4.17v-1.85c0-1.38.94-2.14,2.31-2.19,2.52-.09,4.53.98,5.98,2.96.46.63.64,1.53.64,2.41,0,.37-.01.79,0,1.16.05,1.46-1.17,2.73-2.78,2.73-2.27,0-3.32-.52-4.28-1.05Zm.66-7.06c-.27-.01-.89.21-1.06.55-.17.34,0,1.02.25,1.38,1.17,1.61,2.79,2.49,4.78,2.53,1.22.02,1.61-.76.93-1.76-1.11-1.62-2.57-2.58-4.9-2.7Zm5.23,5.46c-2.58.42-5.21-.65-6.58-2.33.07.58.16,1.7,1.3,2.55s2.32,1.16,3.76,1.16c.71,0,1.61-.5,1.53-1.38Z"/><path class="cls-1" d="m12.02,19.19c.02,1.77-1.4,3.25-3.16,3.28-1.74.03-3.23-1.4-3.27-3.17-.05-1.74,1.4-3.23,3.17-3.27,1.76-.04,3.24,1.39,3.26,3.16Zm-3.2,2c1.13,0,1.99-.88,1.95-2.01-.03-1.08-.9-1.93-1.96-1.92-1.1,0-1.98.92-1.95,2.03.03,1.09.88,1.91,1.96,1.91Z"/><circle class="cls-1" cx="9.92" cy="10.18" r=".6"/><circle class="cls-1" cx="11.78" cy="10.18" r=".6"/></svg>