<?xml version="1.0" encoding="UTF-8"?><svg id="Capa_1" xmlns="http://www.w3.org/2000/svg" viewBox="0 0 46 43"><defs><style>.cls-1{stroke-width:0px;}</style></defs><path class="cls-1" d="m.09,19.16c.08-.56.17-1.11.26-1.67.1-.59.37-.85.82-.77.42.07.61.43.5.98-.4,2.1-.29,4.16.41,6.18.31.88.72,1.73,1.15,2.57.59,1.15,1.24,2.27,1.83,3.34.26-.45.44-.99.8-1.36,1-1.05,2.7-.83,3.44.44.9,1.56,2.24,2.6,3.72,3.35.71-.7,1.37-1.39,2.07-2.03.3-.28.69-.46,1.06-.66.38-.2.75-.1.94.22.2.34.11.73-.3.94-.83.44-1.53,1.01-2.12,1.75-1.92,2.42-1.32,6.35,1.23,8.1,1.36.94,2.86,1.19,4.51,1.06.13-1.11.25-2.21.38-3.32.01-.12.02-.24.04-.36.09-.45.37-.67.78-.62.37.05.59.33.55.79-.11,1.16-.24,2.31-.37,3.5h3.16c.08-.68.15-1.36.23-2.04.06-.48.29-.73.69-.73.42,0,.69.29.66.78-.05.65-.13,1.3-.21,1.99h6.61c.07-.66.15-1.29.22-1.92.01-.1.01-.21.03-.31.09-.48.39-.74.78-.68.38.06.6.36.56.83-.04.51-.11,1.01-.16,1.51-.02.18-.03.35-.06.57.15,0,.28.02.41.02,2.09,0,4.18,0,6.27,0,1.57,0,2.73-.77,3.26-2.13.63-1.61-.2-3.53-1.82-4.13-.57-.21-1.17-.32-1.8-.49-.14,1.21-.27,2.34-.39,3.48-.04.33-.06.65-.11.98-.07.44-.38.72-.74.68-.38-.04-.63-.34-.59-.8.12-1.26.27-2.52.41-3.78.03-.26.05-.53.08-.84-3.37-.77-6.72-1.53-10.11-2.31-.05.49-.07.93-.16,1.34-.05.25-.16.54-.34.68-.14.12-.49.14-.65.04-.18-.11-.34-.4-.34-.61,0-.56.09-1.13.15-1.77-2.16-.49-4.32-.99-6.53-1.49-.11.99-.22,1.92-.32,2.85-.02.21-.04.42-.08.62-.08.43-.36.66-.73.62-.39-.04-.64-.36-.59-.8.09-.86.19-1.72.29-2.58.03-.31.06-.62.1-.98-.27-.02-.52-.02-.76-.05-.48-.05-.76-.35-.72-.75.04-.38.34-.66.8-.58,1.29.2,2.58.43,3.87.68.72.14,1.42.32,2.15.49.04-.04.08-.08.11-.13.75-1.37,1.53-2.73,2.24-4.13,1.57-3.09,1.89-6.31.78-9.62-.9-2.69-2.51-4.78-5.26-5.76-2.24-.8-4.4-.57-6.41.76-.12.08-.25.17-.37.25-.77.53-1.48.54-2.24,0-2.06-1.5-4.31-1.81-6.71-1.05-2.07.66-3.51,2.07-4.54,3.95-.16.29-.28.59-.46.87-.2.32-.5.42-.85.27-.33-.14-.48-.51-.32-.87,2.35-5.6,8.43-7.43,12.93-4.76.11.06.23.12.38.2v-1.94c-.15.02-.28.02-.41.04-2.55.56-4.66-.33-6.5-2.03-1.39-1.28-2.39-2.85-3.22-4.53-.38-.77-.18-1.13.66-1.28,1.71-.31,3.41-.35,5.09.18,1.75.55,3.1,1.62,4.09,3.16.06.1.13.2.19.3.01.02.05.02.12.03,0-.81,0-1.61,0-2.41,0-.49.34-.81.75-.74.4.07.58.35.59.73.01.43,0,.87,0,1.3,0,2.37,0,4.74,0,7.15,4.31-2.36,8.13-1.63,11.67,1.82.09-1.13.2-2.14.25-3.16.11-1.9.65-3.64,1.88-5.11,2.63-3.15,6.87-2.82,9.12.69.87,1.35,1.32,2.84,1.35,4.43.04,2.15.4,4.22,1.53,6.08.41.67.91,1.3,1.43,1.88,2.38,2.66,3.05,5.8,2.65,9.24-.25,2.2-1.01,4.23-2.33,6.02-.5.68-1.11,1.28-1.66,1.9.45.16.95.3,1.41.53,1.93.97,2.9,3.03,2.43,5.13-.45,2.02-2.29,3.54-4.42,3.57-2.48.03-4.95.02-7.43.02-4.78,0-9.55,0-14.33.02-2.42,0-4.39-.91-5.86-2.81-.48-.62-.8-1.35-1.23-2.08-1.44.38-2.86.94-4,2.06-.15.15-.29.3-.44.45-.86.85-2.18.87-3.08.06-.86-.78-.96-2.1-.2-3.03.27-.33.57-.64.92-1.02-.82-.09-1.61-.18-2.4-.28-.43-.05-.86-.09-1.28-.17-1.12-.24-1.86-1.28-1.73-2.42.13-1.12,1.11-1.99,2.25-1.95.74.03,1.48.14,2.29.22-.09-.17-.15-.31-.22-.45-.98-1.81-1.99-3.6-2.94-5.42-.78-1.49-1.23-3.1-1.39-4.78-.01-.12-.05-.23-.08-.34,0-.63,0-1.25,0-1.88Zm30.2-.86c.15-.08.24-.13.33-.18,2.76-1.57,6.19-1.17,8.51.98,1.08,1,1.78,2.23,2.12,3.66.09.4-.1.75-.45.86-.36.11-.69-.08-.84-.48-.05-.14-.08-.29-.12-.43-1.12-3.9-5.94-5.48-9.14-3-.15.12-.28.36-.28.55-.05,2.12-.57,4.12-1.51,6.02-.06.13-.09.32-.04.45,1.15,2.86,4.79,4.3,7.6,3.04,1.82-.82,2.97-2.19,3.47-4.11.13-.51.45-.75.85-.64.39.11.59.46.47.92-.71,2.78-2.43,4.64-5.19,5.38-2.79.74-5.21-.04-7.2-2.14-.33-.35-.6-.75-.92-1.16-.43.78-.83,1.52-1.25,2.28.18.05.3.09.43.12,3.98.91,7.97,1.79,11.94,2.74.71.17,1.2.03,1.74-.41,3.08-2.52,4.56-7.56,3.41-11.58-.48-1.67-1.42-3.02-2.55-4.3-.64-.73-1.16-1.59-1.6-2.46-.89-1.78-1.15-3.71-1.21-5.68-.04-1.63-.53-3.14-1.58-4.42-1.4-1.72-3.58-2.15-5.31-1.03-1.69,1.1-2.44,2.79-2.67,4.7-.2,1.67-.15,3.37-.7,4.99-.04.11,0,.27.06.38.86,1.52,1.38,3.16,1.64,4.95Zm-17.87,15.14s-.02-.02-.08-.05c-1.72-.9-3.19-2.07-4.18-3.8-.27-.47-.79-.58-1.19-.33-.44.26-.59.76-.27,1.25.45.7.97,1.35,1.48,2.01.21.27.34.53.16.86-.18.33-.47.37-.8.33-1.63-.19-3.26-.36-4.89-.54-.61-.07-1.05.25-1.1.78-.05.49.32.9.9.96,1.6.18,3.2.36,4.8.54.37.04.69.12.8.51.12.42-.16.64-.45.88-.61.5-1.22,1.01-1.78,1.56-.4.39-.37.95,0,1.28.35.33.84.31,1.25-.06.23-.21.44-.45.67-.66,1.18-1.06,2.58-1.69,4.09-2.12.2-.06.37-.07.39-.38.04-.97.14-1.95.22-3.03ZM5.91,1.47c.22.38.4.73.6,1.05.97,1.52,2.09,2.9,3.74,3.75,1.24.63,2.53.81,3.88.41C13.31,2.89,10.12.86,5.91,1.47Z"/></svg>