<svg xmlns="http://www.w3.org/2000/svg" xmlns:xlink="http://www.w3.org/1999/xlink" width="49px" height="48px" viewBox="0 0 49 48" version="1.1">
<g id="surface1">
<path style=" stroke:none;fill-rule:nonzero;fill:#000000;fill-opacity:1;" d="M 42.300781 48 L 17.898438 48 C 16.300781 48 14.898438 46.699219 14.898438 45 L 14.898438 9.699219 C 14.898438 8.101562 16.199219 6.699219 17.898438 6.699219 L 42.300781 6.699219 C 43.898438 6.699219 45.300781 8 45.300781 9.699219 L 45.300781 45 C 45.300781 46.699219 44 48 42.300781 48 Z M 17.898438 8.699219 C 17.398438 8.699219 16.898438 9.101562 16.898438 9.699219 L 16.898438 45 C 16.898438 45.5 17.300781 46 17.898438 46 L 42.300781 46 C 42.800781 46 43.300781 45.601562 43.300781 45 L 43.300781 9.699219 C 43.300781 9.199219 42.898438 8.699219 42.300781 8.699219 Z M 17.898438 8.699219 "/>
<path style=" stroke:none;fill-rule:nonzero;fill:#000000;fill-opacity:1;" d="M 9.800781 16.199219 L 7.800781 16.199219 L 7.800781 3.199219 C 7.800781 1.398438 9.199219 0 10.898438 0 L 35 0 C 36.699219 0 38.199219 1.398438 38.199219 3.199219 L 38.199219 7.800781 L 36.199219 7.800781 L 36.199219 3.199219 C 36.101562 2.5 35.601562 2 35 2 L 10.898438 2 C 10.300781 2 9.699219 2.5 9.699219 3.199219 L 9.699219 16.199219 Z M 9.800781 16.199219 "/>
<path style=" stroke:none;fill-rule:nonzero;fill:#000000;fill-opacity:1;" d="M 15.898438 41.300781 L 10.898438 41.300781 C 9.199219 41.300781 7.699219 39.898438 7.699219 38.101562 L 7.699219 25.101562 L 9.699219 25.101562 L 9.699219 38.101562 C 9.699219 38.699219 10.199219 39.300781 10.898438 39.300781 L 15.898438 39.300781 Z M 15.898438 41.300781 "/>
<path style=" stroke:none;fill-rule:nonzero;fill:#000000;fill-opacity:1;" d="M 16.898438 8.5 C 16.601562 8.5 16.300781 8.300781 16.199219 8 C 16 7.601562 16.199219 7.101562 16.601562 7 L 35.898438 0.601562 C 36.300781 0.5 36.699219 0.699219 36.800781 1.101562 C 37 1.5 36.800781 1.898438 36.398438 2 L 17.101562 8.398438 C 17 8.5 16.898438 8.5 16.898438 8.5 Z M 16.898438 8.5 "/>
<path style=" stroke:none;fill-rule:nonzero;fill:#000000;fill-opacity:1;" d="M 27.199219 20.199219 L 20.300781 20.199219 C 19.898438 20.199219 19.601562 19.898438 19.601562 19.5 L 19.601562 12.601562 C 19.601562 12.199219 19.898438 11.898438 20.300781 11.898438 L 27.199219 11.898438 C 27.601562 11.898438 27.898438 12.199219 27.898438 12.601562 L 27.898438 19.5 C 28 19.898438 27.699219 20.199219 27.199219 20.199219 Z M 21.101562 18.699219 L 26.5 18.699219 L 26.5 13.300781 L 21.101562 13.300781 Z M 21.101562 18.699219 "/>
<path style=" stroke:none;fill-rule:nonzero;fill:#000000;fill-opacity:1;" d="M 40 13 L 30.101562 13 C 29.800781 13 29.601562 12.800781 29.601562 12.5 C 29.601562 12.199219 29.800781 12 30.101562 12 L 40 12 C 40.300781 12 40.5 12.199219 40.5 12.5 C 40.5 12.800781 40.300781 13 40 13 Z M 40 13 "/>
<path style=" stroke:none;fill-rule:nonzero;fill:#000000;fill-opacity:1;" d="M 36.199219 16.5 L 30.101562 16.5 C 29.800781 16.5 29.601562 16.300781 29.601562 16 C 29.601562 15.699219 29.800781 15.5 30.101562 15.5 L 36.199219 15.5 C 36.5 15.5 36.699219 15.699219 36.699219 16 C 36.699219 16.300781 36.398438 16.5 36.199219 16.5 Z M 36.199219 16.5 "/>
<path style=" stroke:none;fill-rule:nonzero;fill:#000000;fill-opacity:1;" d="M 27.199219 31.699219 L 20.300781 31.699219 C 19.898438 31.699219 19.601562 31.398438 19.601562 31 L 19.601562 24.101562 C 19.601562 23.699219 19.898438 23.398438 20.300781 23.398438 L 27.199219 23.398438 C 27.601562 23.398438 27.898438 23.699219 27.898438 24.101562 L 27.898438 31 C 28 31.398438 27.699219 31.699219 27.199219 31.699219 Z M 21.101562 30.199219 L 26.5 30.199219 L 26.5 24.800781 L 21.101562 24.800781 Z M 21.101562 30.199219 "/>
<path style=" stroke:none;fill-rule:nonzero;fill:#000000;fill-opacity:1;" d="M 40 24.601562 L 30.101562 24.601562 C 29.800781 24.601562 29.601562 24.398438 29.601562 24.101562 C 29.601562 23.800781 29.800781 23.601562 30.101562 23.601562 L 40 23.601562 C 40.300781 23.601562 40.5 23.800781 40.5 24.101562 C 40.5 24.300781 40.300781 24.601562 40 24.601562 Z M 40 24.601562 "/>
<path style=" stroke:none;fill-rule:nonzero;fill:#000000;fill-opacity:1;" d="M 36.199219 28 L 30.101562 28 C 29.800781 28 29.601562 27.800781 29.601562 27.5 C 29.601562 27.199219 29.800781 27 30.101562 27 L 36.199219 27 C 36.5 27 36.699219 27.199219 36.699219 27.5 C 36.699219 27.800781 36.398438 28 36.199219 28 Z M 36.199219 28 "/>
<path style=" stroke:none;fill-rule:nonzero;fill:#000000;fill-opacity:1;" d="M 27.199219 43.199219 L 20.300781 43.199219 C 19.898438 43.199219 19.601562 42.898438 19.601562 42.5 L 19.601562 35.601562 C 19.601562 35.199219 19.898438 34.898438 20.300781 34.898438 L 27.199219 34.898438 C 27.601562 34.898438 27.898438 35.199219 27.898438 35.601562 L 27.898438 42.5 C 28 42.898438 27.699219 43.199219 27.199219 43.199219 Z M 21.101562 41.699219 L 26.5 41.699219 L 26.5 36.300781 L 21.101562 36.300781 Z M 21.101562 41.699219 "/>
<path style=" stroke:none;fill-rule:nonzero;fill:#000000;fill-opacity:1;" d="M 40 36.101562 L 30.101562 36.101562 C 29.800781 36.101562 29.601562 35.898438 29.601562 35.601562 C 29.601562 35.300781 29.800781 35.101562 30.101562 35.101562 L 40 35.101562 C 40.300781 35.101562 40.5 35.300781 40.5 35.601562 C 40.5 35.898438 40.300781 36.101562 40 36.101562 Z M 40 36.101562 "/>
<path style=" stroke:none;fill-rule:nonzero;fill:#000000;fill-opacity:1;" d="M 36.199219 39.5 L 30.101562 39.5 C 29.800781 39.5 29.601562 39.300781 29.601562 39 C 29.601562 38.699219 29.800781 38.5 30.101562 38.5 L 36.199219 38.5 C 36.5 38.5 36.699219 38.699219 36.699219 39 C 36.699219 39.300781 36.398438 39.5 36.199219 39.5 Z M 36.199219 39.5 "/>
<path style=" stroke:none;fill-rule:nonzero;fill:#000000;fill-opacity:1;" d="M 8.800781 25.398438 C 6 25.398438 3.800781 23.101562 3.800781 20.398438 C 3.800781 17.699219 6.101562 15.398438 8.800781 15.398438 C 11.601562 15.398438 13.800781 17.699219 13.800781 20.398438 C 13.800781 23.101562 11.5 25.398438 8.800781 25.398438 Z M 8.800781 17.398438 C 7.101562 17.398438 5.800781 18.800781 5.800781 20.398438 C 5.800781 22.101562 7.199219 23.398438 8.800781 23.398438 C 10.398438 23.398438 11.800781 22 11.800781 20.398438 C 11.800781 18.699219 10.398438 17.398438 8.800781 17.398438 Z M 8.800781 17.398438 "/>
</g>
</svg>